<?xml version="1.0" standalone="no"?><!DOCTYPE svg PUBLIC "-//W3C//DTD SVG 1.1//EN" "http://www.w3.org/Graphics/SVG/1.1/DTD/svg11.dtd"><svg t="1537757195146" class="icon" style="" viewBox="0 0 1024 1024" version="1.1" xmlns="http://www.w3.org/2000/svg" p-id="4058" xmlns:xlink="http://www.w3.org/1999/xlink" width="200" height="200"><defs><style type="text/css"></style></defs><path d="M202.112 292.437333a42.666667 42.666667 0 0 1 60.117333-4.992L512 498.773333l249.770667-211.328a42.666667 42.666667 0 1 1 55.125333 65.109334l-277.333333 234.666666a42.666667 42.666667 0 0 1-55.125334 0l-277.333333-234.666666a42.666667 42.666667 0 0 1-4.992-60.117334z" fill="#75C82B" p-id="4059"></path><path d="M42.666667 256a128 128 0 0 1 128-128h682.666666a128 128 0 0 1 128 128v512a128 128 0 0 1-128 128H170.666667a128 128 0 0 1-128-128V256z m128-42.666667a42.666667 42.666667 0 0 0-42.666667 42.666667v512a42.666667 42.666667 0 0 0 42.666667 42.666667h682.666666a42.666667 42.666667 0 0 0 42.666667-42.666667V256a42.666667 42.666667 0 0 0-42.666667-42.666667H170.666667z" fill="#75C82B" p-id="4060"></path></svg>